ffmpeg version 4.2.4-1ubuntu0.1 Copyright (c) 2000-2020 the FFmpeg developers
  built with gcc 9 (Ubuntu 9.3.0-10ubuntu2)
  configuration: --prefix=/usr --extra-version=1ubuntu0.1 --toolchain=hardened --libdir=/usr/lib/x86_64-linux-gnu --incdir=/usr/include/x86_64-linux-gnu --arch=amd64 --enable-gpl --disable-stripping --enable-avresample --disable-filter=resample --enable-avisynth --enable-gnutls --enable-ladspa --enable-libaom --enable-libass --enable-libbluray --enable-libbs2b --enable-libcaca --enable-libcdio --enable-libcodec2 --enable-libflite --enable-libfontconfig --enable-libfreetype --enable-libfribidi --enable-libgme --enable-libgsm --enable-libjack --enable-libmp3lame --enable-libmysofa --enable-libopenjpeg --enable-libopenmpt --enable-libopus --enable-libpulse --enable-librsvg --enable-librubberband --enable-libshine --enable-libsnappy --enable-libsoxr --enable-libspeex --enable-libssh --enable-libtheora --enable-libtwolame --enable-libvidstab --enable-libvorbis --enable-libvpx --enable-libwavpack --enable-libwebp --enable-libx265 --enable-libxml2 --enable-libxvid --enable-libzmq --enable-libzvbi --enable-lv2 --enable-omx --enable-openal --enable-opencl --enable-opengl --enable-sdl2 --enable-libdc1394 --enable-libdrm --enable-libiec61883 --enable-nvenc --enable-chromaprint --enable-frei0r --enable-libx264 --enable-shared
  WARNING: library configuration mismatch
  avcodec     configuration: --prefix=/usr --extra-version=1ubuntu0.1 --toolchain=hardened --libdir=/usr/lib/x86_64-linux-gnu --incdir=/usr/include/x86_64-linux-gnu --arch=amd64 --enable-gpl --disable-stripping --enable-avresample --disable-filter=resample --enable-avisynth --enable-gnutls --enable-ladspa --enable-libaom --enable-libass --enable-libbluray --enable-libbs2b --enable-libcaca --enable-libcdio --enable-libcodec2 --enable-libflite --enable-libfontconfig --enable-libfreetype --enable-libfribidi --enable-libgme --enable-libgsm --enable-libjack --enable-libmp3lame --enable-libmysofa --enable-libopenjpeg --enable-libopenmpt --enable-libopus --enable-libpulse --enable-librsvg --enable-librubberband --enable-libshine --enable-libsnappy --enable-libsoxr --enable-libspeex --enable-libssh --enable-libtheora --enable-libtwolame --enable-libvidstab --enable-libvorbis --enable-libvpx --enable-libwavpack --enable-libwebp --enable-libx265 --enable-libxml2 --enable-libxvid --enable-libzmq --enable-libzvbi --enable-lv2 --enable-omx --enable-openal --enable-opencl --enable-opengl --enable-sdl2 --enable-libdc1394 --enable-libdrm --enable-libiec61883 --enable-nvenc --enable-chromaprint --enable-frei0r --enable-libx264 --enable-shared --enable-version3 --disable-doc --disable-programs --enable-libaribb24 --enable-liblensfun --enable-libopencore_amrnb --enable-libopencore_amrwb --enable-libtesseract --enable-libvo_amrwbenc
  libavutil      56. 31.100 / 56. 31.100
  libavcodec     58. 54.100 / 58. 54.100
  libavformat    58. 29.100 / 58. 29.100
  libavdevice    58.  8.100 / 58.  8.100
  libavfilter     7. 57.100 /  7. 57.100
  libavresample   4.  0.  0 /  4.  0.  0
  libswscale      5.  5.100 /  5.  5.100
  libswresample   3.  5.100 /  3.  5.100
  libpostproc    55.  5.100 / 55.  5.100
Input #0, image2pipe, from 'pipe:':
  Duration: N/A, bitrate: N/A
    Stream #0:0: Video: ppm, rgb24, 600x600, 25 fps, 25 tbr, 25 tbn, 25 tbc
Stream mapping:
  Stream #0:0 -> #0:0 (ppm (native) -> h264 (libx264))
[libx264 @ 0x5555555e0800] using cpu capabilities: MMX2 SSE2Fast SSSE3 SSE4.2 AVX FMA3 BMI2 AVX2 AVX512
[libx264 @ 0x5555555e0800] profile High, level 3.0
Output #0, mpegts, to 'ymovie.mp4':
  Metadata:
    encoder         : Lavf58.29.100
    Stream #0:0: Video: h264 (libx264), yuv420p, 600x600, q=-1--1, 25 fps, 90k tbn, 25 tbc
    Metadata:
      encoder         : Lavc58.54.100 libx264
    Side data:
      cpb: bitrate max/min/avg: 0/0/0 buffer size: 0 vbv_delay: -1
frame=   10 fps=0.0 q=13.0 size=       8kB time=00:00:00.36 bitrate= 179.6kbits/s speed=0.562x    frame=   14 fps= 11 q=13.0 size=      10kB time=00:00:00.52 bitrate= 164.9kbits/s speed=0.416x    frame=   18 fps=9.6 q=13.0 size=      13kB time=00:00:00.68 bitrate= 152.6kbits/s speed=0.363x    frame=   22 fps=8.8 q=13.0 size=      15kB time=00:00:00.84 bitrate= 145.0kbits/s speed=0.337x    frame=   26 fps=8.4 q=13.0 size=      17kB time=00:00:01.00 bitrate= 142.9kbits/s speed=0.323x    frame=   30 fps=8.1 q=13.0 size=      20kB time=00:00:01.16 bitrate= 138.7kbits/s speed=0.314x    frame=   34 fps=7.9 q=13.0 size=      22kB time=00:00:01.32 bitrate= 136.7kbits/s speed=0.307x    frame=   38 fps=7.8 q=13.0 size=      25kB time=00:00:01.48 bitrate= 136.2kbits/s speed=0.302x    frame=   42 fps=7.6 q=13.0 size=      27kB time=00:00:01.64 bitrate= 136.6kbits/s speed=0.297x    frame=   46 fps=7.5 q=13.0 size=      30kB time=00:00:01.80 bitrate= 135.4kbits/s speed=0.294x    frame=   50 fps=7.4 q=13.0 size=      32kB time=00:00:01.96 bitrate= 135.8kbits/s speed=0.29x    frame=   54 fps=7.3 q=13.0 size=      35kB time=00:00:02.12 bitrate= 134.1kbits/s speed=0.287x    frame=   58 fps=7.3 q=13.0 size=      37kB time=00:00:02.28 bitrate= 132.6kbits/s speed=0.285x    frame=   62 fps=7.2 q=13.0 size=      40kB time=00:00:02.44 bitrate= 133.1kbits/s speed=0.284x    frame=   66 fps=7.2 q=13.0 size=      42kB time=00:00:02.60 bitrate= 131.9kbits/s speed=0.283x    frame=   70 fps=7.2 q=13.0 size=      44kB time=00:00:02.76 bitrate= 130.8kbits/s speed=0.282x    frame=   74 fps=7.1 q=13.0 size=      46kB time=00:00:02.92 bitrate= 129.8kbits/s speed=0.28x    frame=   78 fps=7.1 q=13.0 size=      49kB time=00:00:03.08 bitrate= 129.9kbits/s speed=0.28x    frame=   82 fps=7.1 q=13.0 size=      51kB time=00:00:03.24 bitrate= 129.0kbits/s speed=0.279x    frame=   86 fps=7.0 q=13.0 size=      53kB time=00:00:03.40 bitrate= 128.3kbits/s speed=0.278x    frame=   90 fps=7.0 q=13.0 size=      56kB time=00:00:03.56 bitrate= 128.4kbits/s speed=0.278x    frame=   94 fps=7.0 q=13.0 size=      58kB time=00:00:03.72 bitrate= 127.8kbits/s speed=0.278x    frame=   98 fps=7.0 q=13.0 size=      60kB time=00:00:03.88 bitrate= 127.1kbits/s speed=0.279x    frame=  102 fps=7.0 q=13.0 size=      63kB time=00:00:04.04 bitrate= 127.3kbits/s speed=0.278x    frame=  106 fps=7.0 q=13.0 size=      65kB time=00:00:04.20 bitrate= 126.8kbits/s speed=0.277x    frame=  110 fps=7.0 q=13.0 size=      67kB time=00:00:04.36 bitrate= 126.3kbits/s speed=0.277x    frame=  114 fps=7.0 q=13.0 size=      69kB time=00:00:04.52 bitrate= 125.8kbits/s speed=0.277x    frame=  118 fps=7.0 q=13.0 size=      72kB time=00:00:04.68 bitrate= 126.0kbits/s speed=0.277x    frame=  122 fps=7.0 q=13.0 size=      74kB time=00:00:04.84 bitrate= 125.5kbits/s speed=0.277x    frame=  126 fps=7.0 q=13.0 size=      76kB time=00:00:05.00 bitrate= 125.1kbits/s speed=0.276x    frame=  130 fps=6.9 q=13.0 size=      79kB time=00:00:05.16 bitrate= 125.3kbits/s speed=0.276x    frame=  134 fps=6.9 q=13.0 size=      81kB time=00:00:05.32 bitrate= 125.0kbits/s speed=0.276x    frame=  138 fps=7.0 q=13.0 size=      83kB time=00:00:05.48 bitrate= 124.6kbits/s speed=0.276x    frame=  142 fps=6.9 q=13.0 size=      86kB time=00:00:05.64 bitrate= 124.8kbits/s speed=0.276x    frame=  146 fps=6.9 q=13.0 size=      88kB time=00:00:05.80 bitrate= 124.5kbits/s speed=0.276x    frame=  150 fps=7.0 q=13.0 size=      90kB time=00:00:05.96 bitrate= 123.9kbits/s speed=0.276x    frame=  154 fps=7.0 q=13.0 size=      92kB time=00:00:06.12 bitrate= 123.4kbits/s speed=0.276x    frame=  158 fps=6.9 q=13.0 size=      95kB time=00:00:06.28 bitrate= 123.6kbits/s speed=0.276x    frame=  162 fps=6.9 q=13.0 size=      97kB time=00:00:06.44 bitrate= 123.3kbits/s speed=0.276x    frame=  166 fps=6.9 q=13.0 size=      99kB time=00:00:06.60 bitrate= 123.1kbits/s speed=0.276x    frame=  170 fps=6.9 q=13.0 size=     102kB time=00:00:06.76 bitrate= 123.3kbits/s speed=0.276x    frame=  174 fps=6.9 q=13.0 size=     104kB time=00:00:06.92 bitrate= 123.0kbits/s speed=0.276x    frame=  178 fps=6.9 q=13.0 size=     106kB time=00:00:07.08 bitrate= 122.6kbits/s speed=0.276x    frame=  182 fps=6.9 q=13.0 size=     108kB time=00:00:07.24 bitrate= 122.4kbits/s speed=0.275x    frame=  185 fps=6.9 q=13.0 size=     110kB time=00:00:07.36 bitrate= 122.6kbits/s speed=0.274x    frame=  189 fps=6.9 q=13.0 size=     112kB time=00:00:07.52 bitrate= 122.4kbits/s speed=0.274x    frame=  192 fps=6.9 q=13.0 size=     114kB time=00:00:07.64 bitrate= 122.2kbits/s speed=0.273x    frame=  195 fps=6.9 q=13.0 size=     116kB time=00:00:07.76 bitrate= 122.1kbits/s speed=0.273x    frame=  198 fps=6.8 q=13.0 size=     118kB time=00:00:07.88 bitrate= 122.5kbits/s speed=0.272x    frame=  202 fps=6.8 q=13.0 size=     120kB time=00:00:08.04 bitrate= 122.3kbits/s speed=0.272x    frame=  206 fps=6.8 q=13.0 size=     122kB time=00:00:08.20 bitrate= 122.2kbits/s speed=0.272x    frame=  209 fps=6.8 q=13.0 size=     124kB time=00:00:08.32 bitrate= 122.0kbits/s speed=0.271x    frame=  213 fps=6.8 q=13.0 size=     126kB time=00:00:08.48 bitrate= 122.2kbits/s speed=0.271x    frame=  217 fps=6.8 q=13.0 size=     129kB time=00:00:08.64 bitrate= 122.0kbits/s speed=0.27x    frame=  221 fps=6.8 q=13.0 size=     131kB time=00:00:08.80 bitrate= 121.9kbits/s speed=0.27x    frame=  225 fps=6.8 q=13.0 size=     133kB time=00:00:08.96 bitrate= 122.0kbits/s speed=0.27x    frame=  229 fps=6.8 q=13.0 size=     136kB time=00:00:09.12 bitrate= 121.9kbits/s speed=0.27x    frame=  233 fps=6.8 q=13.0 size=     138kB time=00:00:09.28 bitrate= 121.7kbits/s speed=0.27x    frame=  237 fps=6.8 q=13.0 size=     140kB time=00:00:09.44 bitrate= 121.9kbits/s speed=0.27x    frame=  241 fps=6.8 q=13.0 size=     143kB time=00:00:09.60 bitrate= 121.7kbits/s speed=0.27x    frame=  245 fps=6.8 q=13.0 size=     145kB time=00:00:09.76 bitrate= 121.6kbits/s speed=0.27x    frame=  249 fps=6.8 q=13.0 size=     147kB time=00:00:09.92 bitrate= 121.4kbits/s speed=0.271x    frame=  253 fps=6.8 q=14.0 size=     152kB time=00:00:10.08 bitrate= 123.7kbits/s speed=0.271x    frame=  257 fps=6.8 q=13.0 size=     154kB time=00:00:10.24 bitrate= 123.4kbits/s speed=0.271x    frame=  261 fps=6.8 q=13.0 size=     157kB time=00:00:10.40 bitrate= 123.5kbits/s speed=0.271x    frame=  265 fps=6.8 q=13.0 size=     159kB time=00:00:10.56 bitrate= 123.2kbits/s speed=0.271x    frame=  269 fps=6.8 q=13.0 size=     161kB time=00:00:10.72 bitrate= 122.9kbits/s speed=0.272x    frame=  273 fps=6.8 q=13.0 size=     163kB time=00:00:10.88 bitrate= 122.8kbits/s speed=0.272x    frame=  277 fps=6.8 q=13.0 size=     166kB time=00:00:11.04 bitrate= 122.9kbits/s speed=0.272x    frame=  281 fps=6.8 q=13.0 size=     168kB time=00:00:11.20 bitrate= 122.7kbits/s speed=0.272x    frame=  285 fps=6.8 q=13.0 size=     170kB time=00:00:11.36 bitrate= 122.6kbits/s speed=0.272x    frame=  289 fps=6.8 q=13.0 size=     173kB time=00:00:11.52 bitrate= 122.7kbits/s speed=0.272x    frame=  293 fps=6.8 q=13.0 size=     175kB time=00:00:11.68 bitrate= 122.6kbits/s speed=0.272x    frame=  297 fps=6.8 q=13.0 size=     177kB time=00:00:11.84 bitrate= 122.5kbits/s speed=0.272x    frame=  301 fps=6.8 q=13.0 size=     180kB time=00:00:12.00 bitrate= 122.6kbits/s speed=0.272x    frame=  305 fps=6.8 q=13.0 size=     182kB time=00:00:12.16 bitrate= 122.3kbits/s speed=0.271x    frame=  309 fps=6.8 q=13.0 size=     184kB time=00:00:12.32 bitrate= 122.2kbits/s speed=0.271x    frame=  313 fps=6.8 q=13.0 size=     186kB time=00:00:12.48 bitrate= 122.1kbits/s speed=0.272x    frame=  317 fps=6.8 q=13.0 size=     189kB time=00:00:12.64 bitrate= 122.2kbits/s speed=0.272x    frame=  321 fps=6.8 q=13.0 size=     191kB time=00:00:12.80 bitrate= 122.1kbits/s speed=0.272x    frame=  325 fps=6.8 q=13.0 size=     193kB time=00:00:12.96 bitrate= 122.0kbits/s speed=0.272x    frame=  329 fps=6.8 q=13.0 size=     196kB time=00:00:13.12 bitrate= 122.2kbits/s speed=0.272x    frame=  333 fps=6.8 q=13.0 size=     198kB time=00:00:13.28 bitrate= 122.0kbits/s speed=0.272x    frame=  337 fps=6.8 q=13.0 size=     200kB time=00:00:13.44 bitrate= 121.9kbits/s speed=0.273x    frame=  341 fps=6.8 q=13.0 size=     202kB time=00:00:13.60 bitrate= 121.6kbits/s speed=0.273x    frame=  345 fps=6.8 q=13.0 size=     205kB time=00:00:13.76 bitrate= 121.8kbits/s speed=0.273x    frame=  349 fps=6.8 q=13.0 size=     207kB time=00:00:13.92 bitrate= 121.7kbits/s speed=0.273x    frame=  353 fps=6.8 q=13.0 size=     209kB time=00:00:14.08 bitrate= 121.5kbits/s speed=0.273x    frame=  357 fps=6.8 q=13.0 size=     211kB time=00:00:14.24 bitrate= 121.6kbits/s speed=0.273x    frame=  361 fps=6.9 q=13.0 size=     214kB time=00:00:14.40 bitrate= 121.5kbits/s speed=0.273x    frame=  365 fps=6.9 q=13.0 size=     216kB time=00:00:14.56 bitrate= 121.4kbits/s speed=0.273x    frame=  369 fps=6.9 q=13.0 size=     218kB time=00:00:14.72 bitrate= 121.5kbits/s speed=0.273x    frame=  373 fps=6.9 q=13.0 size=     220kB time=00:00:14.88 bitrate= 121.3kbits/s speed=0.273x    frame=  377 fps=6.9 q=13.0 size=     223kB time=00:00:15.04 bitrate= 121.2kbits/s speed=0.274x    frame=  381 fps=6.9 q=13.0 size=     225kB time=00:00:15.20 bitrate= 121.1kbits/s speed=0.274x    frame=  385 fps=6.9 q=13.0 size=     227kB time=00:00:15.36 bitrate= 121.2kbits/s speed=0.274x    frame=  389 fps=6.9 q=13.0 size=     229kB time=00:00:15.52 bitrate= 121.1kbits/s speed=0.274x    frame=  393 fps=6.9 q=13.0 size=     232kB time=00:00:15.68 bitrate= 121.0kbits/s speed=0.274x    frame=  397 fps=6.9 q=13.0 size=     234kB time=00:00:15.84 bitrate= 121.3kbits/s speed=0.274x    frame=  401 fps=6.9 q=13.0 size=     237kB time=00:00:16.00 bitrate= 121.2kbits/s speed=0.274x    frame=  405 fps=6.9 q=13.0 size=     239kB time=00:00:16.16 bitrate= 121.0kbits/s speed=0.274x    frame=  409 fps=6.9 q=13.0 size=     241kB time=00:00:16.32 bitrate= 120.9kbits/s speed=0.275x    frame=  413 fps=6.9 q=13.0 size=     243kB time=00:00:16.48 bitrate= 121.0kbits/s speed=0.275x    frame=  417 fps=6.9 q=13.0 size=     246kB time=00:00:16.64 bitrate= 120.9kbits/s speed=0.275x    frame=  421 fps=6.9 q=13.0 size=     248kB time=00:00:16.80 bitrate= 120.8kbits/s speed=0.275x    frame=  425 fps=6.9 q=13.0 size=     250kB time=00:00:16.96 bitrate= 120.9kbits/s speed=0.275x    frame=  429 fps=6.9 q=13.0 size=     252kB time=00:00:17.12 bitrate= 120.8kbits/s speed=0.275x    frame=  433 fps=6.9 q=13.0 size=     255kB time=00:00:17.28 bitrate= 120.7kbits/s speed=0.275x    frame=  437 fps=6.9 q=13.0 size=     256kB time=00:00:17.44 bitrate= 120.2kbits/s speed=0.275x    frame=  441 fps=6.9 q=13.0 size=     256kB time=00:00:17.60 bitrate= 119.2kbits/s speed=0.275x    frame=  445 fps=6.9 q=13.0 size=     256kB time=00:00:17.76 bitrate= 118.1kbits/s speed=0.275x    frame=  449 fps=6.9 q=13.0 size=     256kB time=00:00:17.92 bitrate= 117.0kbits/s speed=0.275x    frame=  453 fps=6.9 q=13.0 size=     256kB time=00:00:18.08 bitrate= 116.0kbits/s speed=0.275x    frame=  457 fps=6.9 q=13.0 size=     256kB time=00:00:18.24 bitrate= 115.0kbits/s speed=0.275x    frame=  461 fps=6.9 q=13.0 size=     256kB time=00:00:18.40 bitrate= 114.0kbits/s speed=0.275x    frame=  465 fps=6.9 q=13.0 size=     256kB time=00:00:18.56 bitrate= 113.0kbits/s speed=0.276x    frame=  469 fps=6.9 q=13.0 size=     256kB time=00:00:18.72 bitrate= 112.0kbits/s speed=0.276x    frame=  473 fps=6.9 q=13.0 size=     256kB time=00:00:18.88 bitrate= 111.1kbits/s speed=0.276x    frame=  477 fps=6.9 q=13.0 size=     256kB time=00:00:19.04 bitrate= 110.1kbits/s speed=0.276x    frame=  481 fps=6.9 q=13.0 size=     256kB time=00:00:19.20 bitrate= 109.2kbits/s speed=0.276x    frame=  485 fps=6.9 q=13.0 size=     256kB time=00:00:19.36 bitrate= 108.3kbits/s speed=0.276x    frame=  489 fps=6.9 q=13.0 size=     256kB time=00:00:19.52 bitrate= 107.4kbits/s speed=0.276x    frame=  493 fps=6.9 q=13.0 size=     256kB time=00:00:19.68 bitrate= 106.6kbits/s speed=0.276x    frame=  497 fps=6.9 q=13.0 size=     256kB time=00:00:19.84 bitrate= 105.7kbits/s speed=0.276x    frame=  501 fps=6.9 q=10.0 size=     256kB time=00:00:20.00 bitrate= 104.9kbits/s speed=0.276x    frame=  505 fps=6.9 q=13.0 size=     256kB time=00:00:20.16 bitrate= 104.0kbits/s speed=0.276x    frame=  509 fps=6.9 q=13.0 size=     256kB time=00:00:20.32 bitrate= 103.2kbits/s speed=0.276x    frame=  513 fps=6.9 q=13.0 size=     256kB time=00:00:20.48 bitrate= 102.4kbits/s speed=0.277x    frame=  517 fps=6.9 q=13.0 size=     256kB time=00:00:20.64 bitrate= 101.6kbits/s speed=0.277x    frame=  521 fps=6.9 q=13.0 size=     256kB time=00:00:20.80 bitrate= 100.8kbits/s speed=0.276x    frame=  525 fps=6.9 q=13.0 size=     256kB time=00:00:20.96 bitrate= 100.1kbits/s speed=0.277x    frame=  529 fps=6.9 q=13.0 size=     256kB time=00:00:21.12 bitrate=  99.3kbits/s speed=0.277x    frame=  533 fps=6.9 q=13.0 size=     256kB time=00:00:21.28 bitrate=  98.6kbits/s speed=0.277x    frame=  537 fps=6.9 q=13.0 size=     256kB time=00:00:21.44 bitrate=  97.8kbits/s speed=0.277x    frame=  541 fps=6.9 q=13.0 size=     256kB time=00:00:21.60 bitrate=  97.1kbits/s speed=0.277x    frame=  545 fps=6.9 q=13.0 size=     256kB time=00:00:21.76 bitrate=  96.4kbits/s speed=0.277x    frame=  549 fps=6.9 q=13.0 size=     256kB time=00:00:21.92 bitrate=  95.7kbits/s speed=0.277x    frame=  553 fps=6.9 q=13.0 size=     256kB time=00:00:22.08 bitrate=  95.0kbits/s speed=0.277x    frame=  557 fps=6.9 q=13.0 size=     256kB time=00:00:22.24 bitrate=  94.3kbits/s speed=0.277x    frame=  561 fps=6.9 q=13.0 size=     256kB time=00:00:22.40 bitrate=  93.6kbits/s speed=0.277x    frame=  565 fps=6.9 q=13.0 size=     256kB time=00:00:22.56 bitrate=  93.0kbits/s speed=0.277x    frame=  569 fps=6.9 q=13.0 size=     256kB time=00:00:22.72 bitrate=  92.3kbits/s speed=0.277x    frame=  573 fps=6.9 q=13.0 size=     256kB time=00:00:22.88 bitrate=  91.7kbits/s speed=0.277x    frame=  577 fps=6.9 q=13.0 size=     256kB time=00:00:23.04 bitrate=  91.0kbits/s speed=0.277x    frame=  581 fps=6.9 q=13.0 size=     256kB time=00:00:23.20 bitrate=  90.4kbits/s speed=0.277x    frame=  585 fps=6.9 q=13.0 size=     256kB time=00:00:23.36 bitrate=  89.8kbits/s speed=0.277x    frame=  589 fps=6.9 q=13.0 size=     256kB time=00:00:23.52 bitrate=  89.2kbits/s speed=0.277x    frame=  593 fps=6.9 q=13.0 size=     256kB time=00:00:23.68 bitrate=  88.6kbits/s speed=0.277x    frame=  597 fps=6.9 q=13.0 size=     256kB time=00:00:23.84 bitrate=  88.0kbits/s speed=0.277x    frame=  601 fps=6.9 q=13.0 size=     256kB time=00:00:24.00 bitrate=  87.4kbits/s speed=0.277x    frame=  605 fps=6.9 q=13.0 size=     256kB time=00:00:24.16 bitrate=  86.8kbits/s speed=0.277x    frame=  609 fps=6.9 q=13.0 size=     256kB time=00:00:24.32 bitrate=  86.2kbits/s speed=0.277x    frame=  613 fps=6.9 q=13.0 size=     256kB time=00:00:24.48 bitrate=  85.7kbits/s speed=0.277x    frame=  617 fps=6.9 q=13.0 size=     256kB time=00:00:24.64 bitrate=  85.1kbits/s speed=0.277x    frame=  621 fps=6.9 q=13.0 size=     256kB time=00:00:24.80 bitrate=  84.6kbits/s speed=0.277x    frame=  625 fps=6.9 q=13.0 size=     256kB time=00:00:24.96 bitrate=  84.0kbits/s speed=0.277x    frame=  629 fps=6.9 q=13.0 size=     256kB time=00:00:25.12 bitrate=  83.5kbits/s speed=0.277x    frame=  633 fps=6.9 q=13.0 size=     256kB time=00:00:25.28 bitrate=  83.0kbits/s speed=0.277x    frame=  637 fps=6.9 q=13.0 size=     256kB time=00:00:25.44 bitrate=  82.4kbits/s speed=0.277x    frame=  641 fps=6.9 q=13.0 size=     256kB time=00:00:25.60 bitrate=  81.9kbits/s speed=0.277x    frame=  645 fps=6.9 q=13.0 size=     256kB time=00:00:25.76 bitrate=  81.4kbits/s speed=0.277x    frame=  649 fps=6.9 q=13.0 size=     256kB time=00:00:25.92 bitrate=  80.9kbits/s speed=0.277x    frame=  653 fps=6.9 q=13.0 size=     256kB time=00:00:26.08 bitrate=  80.4kbits/s speed=0.278x    frame=  657 fps=7.0 q=13.0 size=     256kB time=00:00:26.24 bitrate=  79.9kbits/s speed=0.278x    frame=  661 fps=7.0 q=13.0 size=     256kB time=00:00:26.40 bitrate=  79.4kbits/s speed=0.278x    frame=  665 fps=7.0 q=13.0 size=     256kB time=00:00:26.56 bitrate=  79.0kbits/s speed=0.278x    frame=  669 fps=7.0 q=13.0 size=     256kB time=00:00:26.72 bitrate=  78.5kbits/s speed=0.278x    frame=  673 fps=7.0 q=13.0 size=     256kB time=00:00:26.88 bitrate=  78.0kbits/s speed=0.278x    frame=  677 fps=7.0 q=13.0 size=     256kB time=00:00:27.04 bitrate=  77.6kbits/s speed=0.278x    frame=  681 fps=7.0 q=13.0 size=     256kB time=00:00:27.20 bitrate=  77.1kbits/s speed=0.278x    frame=  685 fps=7.0 q=13.0 size=     256kB time=00:00:27.36 bitrate=  76.7kbits/s speed=0.278x    frame=  689 fps=7.0 q=13.0 size=     256kB time=00:00:27.52 bitrate=  76.2kbits/s speed=0.278x    frame=  693 fps=7.0 q=13.0 size=     256kB time=00:00:27.68 bitrate=  75.8kbits/s speed=0.278x    frame=  697 fps=7.0 q=13.0 size=     256kB time=00:00:27.84 bitrate=  75.3kbits/s speed=0.278x    frame=  701 fps=7.0 q=13.0 size=     256kB time=00:00:28.00 bitrate=  74.9kbits/s speed=0.278x    frame=  705 fps=7.0 q=13.0 size=     256kB time=00:00:28.16 bitrate=  74.5kbits/s speed=0.278x    frame=  709 fps=7.0 q=13.0 size=     256kB time=00:00:28.32 bitrate=  74.1kbits/s speed=0.279x    frame=  713 fps=7.0 q=13.0 size=     256kB time=00:00:28.48 bitrate=  73.6kbits/s speed=0.279x    frame=  717 fps=7.0 q=13.0 size=     256kB time=00:00:28.64 bitrate=  73.2kbits/s speed=0.279x    frame=  721 fps=7.0 q=13.0 size=     256kB time=00:00:28.80 bitrate=  72.8kbits/s speed=0.279x    frame=  725 fps=7.0 q=13.0 size=     256kB time=00:00:28.96 bitrate=  72.4kbits/s speed=0.279x    frame=  729 fps=7.0 q=13.0 size=     256kB time=00:00:29.12 bitrate=  72.0kbits/s speed=0.279x    frame=  733 fps=7.0 q=13.0 size=     256kB time=00:00:29.28 bitrate=  71.6kbits/s speed=0.279x    frame=  737 fps=7.0 q=13.0 size=     256kB time=00:00:29.44 bitrate=  71.2kbits/s speed=0.279x    frame=  741 fps=7.0 q=13.0 size=     256kB time=00:00:29.60 bitrate=  70.8kbits/s speed=0.279x    frame=  745 fps=7.0 q=13.0 size=     256kB time=00:00:29.76 bitrate=  70.5kbits/s speed=0.279x    frame=  749 fps=7.0 q=13.0 size=     256kB time=00:00:29.92 bitrate=  70.1kbits/s speed=0.279x    frame=  753 fps=7.0 q=14.0 size=     256kB time=00:00:30.08 bitrate=  69.7kbits/s speed=0.279x    frame=  757 fps=7.0 q=13.0 size=     256kB time=00:00:30.24 bitrate=  69.4kbits/s speed=0.279x    frame=  761 fps=7.0 q=13.0 size=     256kB time=00:00:30.40 bitrate=  69.0kbits/s speed=0.279x    frame=  765 fps=7.0 q=13.0 size=     256kB time=00:00:30.56 bitrate=  68.6kbits/s speed=0.279x    frame=  769 fps=7.0 q=13.0 size=     256kB time=00:00:30.72 bitrate=  68.3kbits/s speed=0.279x    frame=  773 fps=7.0 q=13.0 size=     256kB time=00:00:30.88 bitrate=  67.9kbits/s speed=0.279x    frame=  777 fps=7.0 q=13.0 size=     256kB time=00:00:31.04 bitrate=  67.6kbits/s speed=0.279x    frame=  781 fps=7.0 q=13.0 size=     256kB time=00:00:31.20 bitrate=  67.2kbits/s speed=0.279x    frame=  785 fps=7.0 q=13.0 size=     256kB time=00:00:31.36 bitrate=  66.9kbits/s speed=0.279x    frame=  789 fps=7.0 q=13.0 size=     256kB time=00:00:31.52 bitrate=  66.5kbits/s speed=0.279x    frame=  793 fps=7.0 q=13.0 size=     256kB time=00:00:31.68 bitrate=  66.2kbits/s speed=0.279x    frame=  797 fps=7.0 q=13.0 size=     256kB time=00:00:31.84 bitrate=  65.9kbits/s speed=0.279x    frame=  801 fps=7.0 q=13.0 size=     256kB time=00:00:32.00 bitrate=  65.5kbits/s speed=0.279x    frame=  805 fps=7.0 q=13.0 size=     256kB time=00:00:32.16 bitrate=  65.2kbits/s speed=0.279x    frame=  809 fps=7.0 q=13.0 size=     256kB time=00:00:32.32 bitrate=  64.9kbits/s speed=0.279x    frame=  813 fps=7.0 q=13.0 size=     256kB time=00:00:32.48 bitrate=  64.6kbits/s speed=0.279x    frame=  817 fps=7.0 q=13.0 size=     256kB time=00:00:32.64 bitrate=  64.3kbits/s speed=0.279x    frame=  821 fps=7.0 q=13.0 size=     256kB time=00:00:32.80 bitrate=  63.9kbits/s speed=0.279x    frame=  825 fps=7.0 q=13.0 size=     256kB time=00:00:32.96 bitrate=  63.6kbits/s speed=0.279x    frame=  829 fps=7.0 q=13.0 size=     256kB time=00:00:33.12 bitrate=  63.3kbits/s speed=0.279x    frame=  833 fps=7.0 q=13.0 size=     256kB time=00:00:33.28 bitrate=  63.0kbits/s speed=0.279x    frame=  837 fps=7.0 q=13.0 size=     256kB time=00:00:33.44 bitrate=  62.7kbits/s speed=0.279x    frame=  841 fps=7.0 q=13.0 size=     256kB time=00:00:33.60 bitrate=  62.4kbits/s speed=0.279x    frame=  845 fps=7.0 q=13.0 size=     256kB time=00:00:33.76 bitrate=  62.1kbits/s speed=0.279x    frame=  849 fps=7.0 q=13.0 size=     256kB time=00:00:33.92 bitrate=  61.8kbits/s speed=0.279x    frame=  853 fps=7.0 q=13.0 size=     256kB time=00:00:34.08 bitrate=  61.5kbits/s speed=0.279x    frame=  857 fps=7.0 q=13.0 size=     256kB time=00:00:34.24 bitrate=  61.2kbits/s speed=0.279x    frame=  861 fps=7.0 q=13.0 size=     256kB time=00:00:34.40 bitrate=  61.0kbits/s speed=0.279x    frame=  865 fps=7.0 q=13.0 size=     256kB time=00:00:34.56 bitrate=  60.7kbits/s speed=0.279x    frame=  869 fps=7.0 q=13.0 size=     256kB time=00:00:34.72 bitrate=  60.4kbits/s speed=0.279x    frame=  873 fps=7.0 q=13.0 size=     512kB time=00:00:34.88 bitrate= 120.2kbits/s speed=0.279x    frame=  877 fps=7.0 q=13.0 size=     512kB time=00:00:35.04 bitrate= 119.7kbits/s speed=0.279x    frame=  881 fps=7.0 q=13.0 size=     512kB time=00:00:35.20 bitrate= 119.2kbits/s speed=0.279x    frame=  885 fps=7.0 q=13.0 size=     512kB time=00:00:35.36 bitrate= 118.6kbits/s speed=0.279x    frame=  889 fps=7.0 q=13.0 size=     512kB time=00:00:35.52 bitrate= 118.1kbits/s speed=0.279x    frame=  893 fps=7.0 q=13.0 size=     512kB time=00:00:35.68 bitrate= 117.6kbits/s speed=0.279x    frame=  897 fps=7.0 q=13.0 size=     512kB time=00:00:35.84 bitrate= 117.0kbits/s speed=0.279x    frame=  901 fps=7.0 q=13.0 size=     512kB time=00:00:36.00 bitrate= 116.5kbits/s speed=0.279x    frame=  905 fps=7.0 q=13.0 size=     512kB time=00:00:36.16 bitrate= 116.0kbits/s speed=0.279x    frame=  909 fps=7.0 q=13.0 size=     512kB time=00:00:36.32 bitrate= 115.5kbits/s speed=0.279x    frame=  912 fps=7.0 q=13.0 size=     512kB time=00:00:36.44 bitrate= 115.1kbits/s speed=0.279x    frame=  916 fps=7.0 q=13.0 size=     512kB time=00:00:36.60 bitrate= 114.6kbits/s speed=0.279x    frame=  920 fps=7.0 q=13.0 size=     512kB time=00:00:36.76 bitrate= 114.1kbits/s speed=0.278x    frame=  924 fps=7.0 q=13.0 size=     512kB time=00:00:36.92 bitrate= 113.6kbits/s speed=0.278x    frame=  928 fps=7.0 q=13.0 size=     512kB time=00:00:37.08 bitrate= 113.1kbits/s speed=0.278x    frame=  932 fps=7.0 q=13.0 size=     512kB time=00:00:37.24 bitrate= 112.6kbits/s speed=0.278x    frame=  936 fps=7.0 q=13.0 size=     512kB time=00:00:37.40 bitrate= 112.1kbits/s speed=0.278x    frame=  940 fps=7.0 q=13.0 size=     512kB time=00:00:37.56 bitrate= 111.7kbits/s speed=0.278x    frame=  944 fps=7.0 q=13.0 size=     512kB time=00:00:37.72 bitrate= 111.2kbits/s speed=0.278x    frame=  948 fps=7.0 q=13.0 size=     512kB time=00:00:37.88 bitrate= 110.7kbits/s speed=0.278x    frame=  952 fps=7.0 q=13.0 size=     512kB time=00:00:38.04 bitrate= 110.3kbits/s speed=0.278x    frame=  956 fps=7.0 q=13.0 size=     512kB time=00:00:38.20 bitrate= 109.8kbits/s speed=0.278x    frame=  960 fps=6.9 q=13.0 size=     512kB time=00:00:38.36 bitrate= 109.3kbits/s speed=0.278x    frame=  964 fps=6.9 q=13.0 size=     512kB time=00:00:38.52 bitrate= 108.9kbits/s speed=0.278x    frame=  968 fps=6.9 q=13.0 size=     512kB time=00:00:38.68 bitrate= 108.4kbits/s speed=0.278x    frame=  972 fps=6.9 q=13.0 size=     512kB time=00:00:38.84 bitrate= 108.0kbits/s speed=0.277x    frame=  976 fps=6.9 q=13.0 size=     512kB time=00:00:39.00 bitrate= 107.5kbits/s speed=0.277x    frame=  980 fps=6.9 q=13.0 size=     512kB time=00:00:39.16 bitrate= 107.1kbits/s speed=0.277x    frame=  984 fps=6.9 q=13.0 size=     512kB time=00:00:39.32 bitrate= 106.7kbits/s speed=0.277x    frame=  988 fps=6.9 q=13.0 size=     512kB time=00:00:39.48 bitrate= 106.2kbits/s speed=0.277x    frame=  992 fps=6.9 q=13.0 size=     512kB time=00:00:39.64 bitrate= 105.8kbits/s speed=0.277x    frame=  996 fps=6.9 q=13.0 size=     512kB time=00:00:39.80 bitrate= 105.4kbits/s speed=0.277x    frame= 1000 fps=6.9 q=13.0 size=     512kB time=00:00:39.96 bitrate= 105.0kbits/s speed=0.277x    frame= 1004 fps=6.9 q=14.0 size=     512kB time=00:00:40.12 bitrate= 104.5kbits/s speed=0.277x    frame= 1008 fps=6.9 q=13.0 size=     512kB time=00:00:40.28 bitrate= 104.1kbits/s speed=0.277x    frame= 1012 fps=6.9 q=13.0 size=     512kB time=00:00:40.44 bitrate= 103.7kbits/s speed=0.277x    frame= 1016 fps=6.9 q=13.0 size=     512kB time=00:00:40.60 bitrate= 103.3kbits/s speed=0.277x    frame= 1020 fps=6.9 q=13.0 size=     512kB time=00:00:40.76 bitrate= 102.9kbits/s speed=0.277x    frame= 1024 fps=6.9 q=13.0 size=     512kB time=00:00:40.92 bitrate= 102.5kbits/s speed=0.277x    frame= 1028 fps=6.9 q=13.0 size=     512kB time=00:00:41.08 bitrate= 102.1kbits/s speed=0.277x    frame= 1032 fps=6.9 q=13.0 size=     512kB time=00:00:41.24 bitrate= 101.7kbits/s speed=0.277x    frame= 1036 fps=6.9 q=13.0 size=     512kB time=00:00:41.40 bitrate= 101.3kbits/s speed=0.277x    frame= 1040 fps=6.9 q=13.0 size=     512kB time=00:00:41.56 bitrate= 100.9kbits/s speed=0.277x    frame= 1044 fps=6.9 q=13.0 size=     512kB time=00:00:41.72 bitrate= 100.5kbits/s speed=0.277x    frame= 1048 fps=6.9 q=13.0 size=     512kB time=00:00:41.88 bitrate= 100.2kbits/s speed=0.277x    frame= 1052 fps=6.9 q=13.0 size=     512kB time=00:00:42.04 bitrate=  99.8kbits/s speed=0.277x    frame= 1056 fps=6.9 q=13.0 size=     512kB time=00:00:42.20 bitrate=  99.4kbits/s speed=0.277x    frame= 1060 fps=6.9 q=13.0 size=     512kB time=00:00:42.36 bitrate=  99.0kbits/s speed=0.277x    frame= 1064 fps=6.9 q=13.0 size=     512kB time=00:00:42.52 bitrate=  98.6kbits/s speed=0.276x    frame= 1068 fps=6.9 q=13.0 size=     512kB time=00:00:42.68 bitrate=  98.3kbits/s speed=0.276x    frame= 1072 fps=6.9 q=13.0 size=     512kB time=00:00:42.84 bitrate=  97.9kbits/s speed=0.276x    frame= 1076 fps=6.9 q=13.0 size=     512kB time=00:00:43.00 bitrate=  97.5kbits/s speed=0.276x    frame= 1080 fps=6.9 q=13.0 size=     512kB time=00:00:43.16 bitrate=  97.2kbits/s speed=0.276x    frame= 1084 fps=6.9 q=13.0 size=     512kB time=00:00:43.32 bitrate=  96.8kbits/s speed=0.276x    frame= 1088 fps=6.9 q=13.0 size=     512kB time=00:00:43.48 bitrate=  96.5kbits/s speed=0.276x    frame= 1092 fps=6.9 q=13.0 size=     512kB time=00:00:43.64 bitrate=  96.1kbits/s speed=0.276x    frame= 1096 fps=6.9 q=13.0 size=     512kB time=00:00:43.80 bitrate=  95.8kbits/s speed=0.276x    frame= 1100 fps=6.9 q=13.0 size=     512kB time=00:00:43.96 bitrate=  95.4kbits/s speed=0.276x    frame= 1104 fps=6.9 q=13.0 size=     512kB time=00:00:44.12 bitrate=  95.1kbits/s speed=0.276x    frame= 1108 fps=6.9 q=13.0 size=     512kB time=00:00:44.28 bitrate=  94.7kbits/s speed=0.276x    frame= 1112 fps=6.9 q=13.0 size=     512kB time=00:00:44.44 bitrate=  94.4kbits/s speed=0.276x    frame= 1116 fps=6.9 q=13.0 size=     512kB time=00:00:44.60 bitrate=  94.0kbits/s speed=0.276x    frame= 1120 fps=6.9 q=13.0 size=     512kB time=00:00:44.76 bitrate=  93.7kbits/s speed=0.276x    frame= 1123 fps=6.9 q=13.0 size=     512kB time=00:00:44.88 bitrate=  93.5kbits/s speed=0.276x    frame= 1127 fps=6.9 q=13.0 size=     512kB time=00:00:45.04 bitrate=  93.1kbits/s speed=0.275x    frame= 1131 fps=6.9 q=13.0 size=     512kB time=00:00:45.20 bitrate=  92.8kbits/s speed=0.275x    frame= 1135 fps=6.9 q=13.0 size=     512kB time=00:00:45.36 bitrate=  92.5kbits/s speed=0.275x    frame= 1139 fps=6.9 q=13.0 size=     512kB time=00:00:45.52 bitrate=  92.1kbits/s speed=0.275x    frame= 1143 fps=6.9 q=13.0 size=     512kB time=00:00:45.68 bitrate=  91.8kbits/s speed=0.275x    frame= 1147 fps=6.9 q=13.0 size=     512kB time=00:00:45.84 bitrate=  91.5kbits/s speed=0.275x    frame= 1151 fps=6.9 q=13.0 size=     512kB time=00:00:46.00 bitrate=  91.2kbits/s speed=0.275x    frame= 1155 fps=6.9 q=13.0 size=     512kB time=00:00:46.16 bitrate=  90.9kbits/s speed=0.275x    frame= 1159 fps=6.9 q=13.0 size=     512kB time=00:00:46.32 bitrate=  90.6kbits/s speed=0.275x    frame= 1163 fps=6.9 q=13.0 size=     512kB time=00:00:46.48 bitrate=  90.2kbits/s speed=0.275x    frame= 1167 fps=6.9 q=13.0 size=     512kB time=00:00:46.64 bitrate=  89.9kbits/s speed=0.275x    frame= 1171 fps=6.9 q=13.0 size=     512kB time=00:00:46.80 bitrate=  89.6kbits/s speed=0.275x    frame= 1175 fps=6.9 q=13.0 size=     512kB time=00:00:46.96 bitrate=  89.3kbits/s speed=0.275x    frame= 1179 fps=6.9 q=13.0 size=     512kB time=00:00:47.12 bitrate=  89.0kbits/s speed=0.275x    frame= 1183 fps=6.9 q=13.0 size=     512kB time=00:00:47.28 bitrate=  88.7kbits/s speed=0.275x    frame= 1187 fps=6.9 q=13.0 size=     512kB time=00:00:47.44 bitrate=  88.4kbits/s speed=0.275x    frame= 1191 fps=6.9 q=13.0 size=     512kB time=00:00:47.60 bitrate=  88.1kbits/s speed=0.275x    frame= 1195 fps=6.9 q=13.0 size=     512kB time=00:00:47.76 bitrate=  87.8kbits/s speed=0.275x    frame= 1199 fps=6.9 q=13.0 size=     512kB time=00:00:47.92 bitrate=  87.5kbits/s speed=0.275x    frame= 1203 fps=6.9 q=13.0 size=     512kB time=00:00:48.08 bitrate=  87.2kbits/s speed=0.275x    frame= 1207 fps=6.9 q=13.0 size=     512kB time=00:00:48.24 bitrate=  86.9kbits/s speed=0.275x    frame= 1211 fps=6.9 q=13.0 size=     512kB time=00:00:48.40 bitrate=  86.7kbits/s speed=0.275x    frame= 1215 fps=6.9 q=13.0 size=     512kB time=00:00:48.56 bitrate=  86.4kbits/s speed=0.275x    frame= 1219 fps=6.9 q=13.0 size=     512kB time=00:00:48.72 bitrate=  86.1kbits/s speed=0.275x    Error while decoding stream #0:0: Invalid data found when processing input
frame= 1219 fps=6.9 q=13.0 Lsize=     716kB time=00:00:48.72 bitrate= 120.3kbits/s speed=0.275x    
video:491kB audio:0kB subtitle:0kB other streams:0kB global headers:0kB muxing overhead: 45.623779%
[libx264 @ 0x5555555e0800] frame I:5     Avg QP: 0.87  size:  3282
[libx264 @ 0x5555555e0800] frame P:1214  Avg QP: 1.88  size:   401
[libx264 @ 0x5555555e0800] mb I  I16..4: 94.8%  1.6%  3.6%
[libx264 @ 0x5555555e0800] mb P  I16..4:  0.0%  0.0%  0.0%  P16..4:  2.3%  0.6%  0.3%  0.0%  0.0%    skip:96.7%
[libx264 @ 0x5555555e0800] 8x8 transform intra:2.4% inter:13.2%
[libx264 @ 0x5555555e0800] coded y,uvDC,uvAC intra: 4.9% 10.6% 10.2% inter: 0.2% 0.7% 0.3%
[libx264 @ 0x5555555e0800] i16 v,h,dc,p: 73%  5% 21%  0%
[libx264 @ 0x5555555e0800] i8 v,h,dc,ddl,ddr,vr,hd,vl,hu: 10% 31% 34%  3%  4%  6%  2%  3%  7%
[libx264 @ 0x5555555e0800] i4 v,h,dc,ddl,ddr,vr,hd,vl,hu: 12% 33% 28%  3%  8%  5%  5%  3%  5%
[libx264 @ 0x5555555e0800] i8c dc,h,v,p: 89%  8%  1%  2%
[libx264 @ 0x5555555e0800] Weighted P-Frames: Y:0.0% UV:0.0%
[libx264 @ 0x5555555e0800] ref P L0: 67.7%  0.5% 10.4%  6.9%  6.8%  7.8%
[libx264 @ 0x5555555e0800] kb/s:82.56
Exiting normally, received signal 2.
ffmpeg version 4.2.4-1ubuntu0.1 Copyright (c) 2000-2020 the FFmpeg developers
  built with gcc 9 (Ubuntu 9.3.0-10ubuntu2)
  configuration: --prefix=/usr --extra-version=1ubuntu0.1 --toolchain=hardened --libdir=/usr/lib/x86_64-linux-gnu --incdir=/usr/include/x86_64-linux-gnu --arch=amd64 --enable-gpl --disable-stripping --enable-avresample --disable-filter=resample --enable-avisynth --enable-gnutls --enable-ladspa --enable-libaom --enable-libass --enable-libbluray --enable-libbs2b --enable-libcaca --enable-libcdio --enable-libcodec2 --enable-libflite --enable-libfontconfig --enable-libfreetype --enable-libfribidi --enable-libgme --enable-libgsm --enable-libjack --enable-libmp3lame --enable-libmysofa --enable-libopenjpeg --enable-libopenmpt --enable-libopus --enable-libpulse --enable-librsvg --enable-librubberband --enable-libshine --enable-libsnappy --enable-libsoxr --enable-libspeex --enable-libssh --enable-libtheora --enable-libtwolame --enable-libvidstab --enable-libvorbis --enable-libvpx --enable-libwavpack --enable-libwebp --enable-libx265 --enable-libxml2 --enable-libxvid --enable-libzmq --enable-libzvbi --enable-lv2 --enable-omx --enable-openal --enable-opencl --enable-opengl --enable-sdl2 --enable-libdc1394 --enable-libdrm --enable-libiec61883 --enable-nvenc --enable-chromaprint --enable-frei0r --enable-libx264 --enable-shared
  WARNING: library configuration mismatch
  avcodec     configuration: --prefix=/usr --extra-version=1ubuntu0.1 --toolchain=hardened --libdir=/usr/lib/x86_64-linux-gnu --incdir=/usr/include/x86_64-linux-gnu --arch=amd64 --enable-gpl --disable-stripping --enable-avresample --disable-filter=resample --enable-avisynth --enable-gnutls --enable-ladspa --enable-libaom --enable-libass --enable-libbluray --enable-libbs2b --enable-libcaca --enable-libcdio --enable-libcodec2 --enable-libflite --enable-libfontconfig --enable-libfreetype --enable-libfribidi --enable-libgme --enable-libgsm --enable-libjack --enable-libmp3lame --enable-libmysofa --enable-libopenjpeg --enable-libopenmpt --enable-libopus --enable-libpulse --enable-librsvg --enable-librubberband --enable-libshine --enable-libsnappy --enable-libsoxr --enable-libspeex --enable-libssh --enable-libtheora --enable-libtwolame --enable-libvidstab --enable-libvorbis --enable-libvpx --enable-libwavpack --enable-libwebp --enable-libx265 --enable-libxml2 --enable-libxvid --enable-libzmq --enable-libzvbi --enable-lv2 --enable-omx --enable-openal --enable-opencl --enable-opengl --enable-sdl2 --enable-libdc1394 --enable-libdrm --enable-libiec61883 --enable-nvenc --enable-chromaprint --enable-frei0r --enable-libx264 --enable-shared --enable-version3 --disable-doc --disable-programs --enable-libaribb24 --enable-liblensfun --enable-libopencore_amrnb --enable-libopencore_amrwb --enable-libtesseract --enable-libvo_amrwbenc
  libavutil      56. 31.100 / 56. 31.100
  libavcodec     58. 54.100 / 58. 54.100
  libavformat    58. 29.100 / 58. 29.100
  libavdevice    58.  8.100 / 58.  8.100
  libavfilter     7. 57.100 /  7. 57.100
  libavresample   4.  0.  0 /  4.  0.  0
  libswscale      5.  5.100 /  5.  5.100
  libswresample   3.  5.100 /  3.  5.100
  libpostproc    55.  5.100 / 55.  5.100
Input #0, image2pipe, from 'pipe:':
  Duration: N/A, bitrate: N/A
    Stream #0:0: Video: ppm, rgb24, 600x600, 25 fps, 25 tbr, 25 tbn, 25 tbc
Stream mapping:
  Stream #0:0 -> #0:0 (ppm (native) -> h264 (libx264))
[libx264 @ 0x5555555e0800] using cpu capabilities: MMX2 SSE2Fast SSSE3 SSE4.2 AVX FMA3 BMI2 AVX2 AVX512
[libx264 @ 0x5555555e0800] profile High, level 3.0
Output #0, mpegts, to 'xmovie.mp4':
  Metadata:
    encoder         : Lavf58.29.100
    Stream #0:0: Video: h264 (libx264), yuv420p, 600x600, q=-1--1, 25 fps, 90k tbn, 25 tbc
    Metadata:
      encoder         : Lavc58.54.100 libx264
    Side data:
      cpb: bitrate max/min/avg: 0/0/0 buffer size: 0 vbv_delay: -1
frame=    9 fps=0.0 q=13.0 size=       7kB time=00:00:00.32 bitrate= 183.3kbits/s speed=0.635x    frame=   13 fps= 12 q=13.0 size=      10kB time=00:00:00.48 bitrate= 166.1kbits/s speed=0.431x    frame=   17 fps=9.8 q=13.0 size=      12kB time=00:00:00.64 bitrate= 152.7kbits/s speed=0.368x    frame=   21 fps=8.9 q=13.0 size=      14kB time=00:00:00.80 bitrate= 146.6kbits/s speed=0.339x    frame=   25 fps=8.4 q=14.0 size=      18kB time=00:00:00.96 bitrate= 150.4kbits/s speed=0.323x    frame=   29 fps=8.1 q=14.0 size=      21kB time=00:00:01.12 bitrate= 153.1kbits/s speed=0.314x    frame=   33 fps=7.9 q=14.0 size=      24kB time=00:00:01.28 bitrate= 155.1kbits/s speed=0.308x    frame=   37 fps=7.8 q=14.0 size=      27kB time=00:00:01.44 bitrate= 155.6kbits/s speed=0.303x    frame=   41 fps=7.6 q=14.0 size=      30kB time=00:00:01.60 bitrate= 156.0kbits/s speed=0.297x    frame=   45 fps=7.5 q=14.0 size=      34kB time=00:00:01.76 bitrate= 156.4kbits/s speed=0.294x    frame=   49 fps=7.4 q=14.0 size=      36kB time=00:00:01.92 bitrate= 155.1kbits/s speed=0.291x    frame=   53 fps=7.3 q=14.0 size=      40kB time=00:00:02.08 bitrate= 156.2kbits/s speed=0.287x    frame=   57 fps=7.3 q=14.0 size=      42kB time=00:00:02.24 bitrate= 155.1kbits/s speed=0.285x    frame=   61 fps=7.2 q=13.0 size=      45kB time=00:00:02.40 bitrate= 152.9kbits/s speed=0.284x    frame=   65 fps=7.2 q=13.0 size=      48kB time=00:00:02.56 bitrate= 153.3kbits/s speed=0.283x    frame=   69 fps=7.1 q=13.0 size=      50kB time=00:00:02.72 bitrate= 151.5kbits/s speed=0.282x    frame=   73 fps=7.1 q=13.0 size=      53kB time=00:00:02.88 bitrate= 149.9kbits/s speed=0.28x    frame=   77 fps=7.1 q=13.0 size=      55kB time=00:00:03.04 bitrate= 148.9kbits/s speed=0.279x    frame=   81 fps=7.1 q=13.0 size=      57kB time=00:00:03.20 bitrate= 147.1kbits/s speed=0.279x    frame=   85 fps=7.0 q=13.0 size=      59kB time=00:00:03.36 bitrate= 145.0kbits/s speed=0.278x    frame=   89 fps=7.0 q=13.0 size=      62kB time=00:00:03.52 bitrate= 144.0kbits/s speed=0.278x    frame=   93 fps=7.0 q=13.0 size=      64kB time=00:00:03.68 bitrate= 143.5kbits/s speed=0.278x    frame=   97 fps=7.0 q=13.0 size=      67kB time=00:00:03.84 bitrate= 142.2kbits/s speed=0.278x    frame=  101 fps=7.0 q=13.0 size=      69kB time=00:00:04.00 bitrate= 141.0kbits/s speed=0.277x    frame=  105 fps=7.0 q=13.0 size=      71kB time=00:00:04.16 bitrate= 140.6kbits/s speed=0.277x    frame=  109 fps=7.0 q=13.0 size=      74kB time=00:00:04.32 bitrate= 139.6kbits/s speed=0.277x    frame=  113 fps=7.0 q=13.0 size=      76kB time=00:00:04.48 bitrate= 139.3kbits/s speed=0.277x    frame=  117 fps=7.0 q=13.0 size=      79kB time=00:00:04.64 bitrate= 139.4kbits/s speed=0.277x    frame=  121 fps=7.0 q=13.0 size=      81kB time=00:00:04.80 bitrate= 138.8kbits/s speed=0.277x    frame=  125 fps=7.0 q=13.0 size=      84kB time=00:00:04.96 bitrate= 138.0kbits/s speed=0.276x    frame=  129 fps=6.9 q=13.0 size=      86kB time=00:00:05.12 bitrate= 137.5kbits/s speed=0.276x    frame=  133 fps=6.9 q=13.0 size=      88kB time=00:00:05.28 bitrate= 136.4kbits/s speed=0.276x    frame=  137 fps=6.9 q=13.0 size=      90kB time=00:00:05.44 bitrate= 135.7kbits/s speed=0.276x    frame=  141 fps=6.9 q=13.0 size=      92kB time=00:00:05.60 bitrate= 134.8kbits/s speed=0.276x    frame=  145 fps=6.9 q=13.0 size=      95kB time=00:00:05.76 bitrate= 134.7kbits/s speed=0.276x    frame=  149 fps=6.9 q=13.0 size=      97kB time=00:00:05.92 bitrate= 134.1kbits/s speed=0.276x    frame=  153 fps=6.9 q=13.0 size=      99kB time=00:00:06.08 bitrate= 133.6kbits/s speed=0.276x    frame=  157 fps=6.9 q=13.0 size=     102kB time=00:00:06.24 bitrate= 133.5kbits/s speed=0.276x    frame=  161 fps=6.9 q=13.0 size=     104kB time=00:00:06.40 bitrate= 132.8kbits/s speed=0.276x    frame=  165 fps=6.9 q=13.0 size=     106kB time=00:00:06.56 bitrate= 132.3kbits/s speed=0.276x    frame=  169 fps=6.9 q=13.0 size=     108kB time=00:00:06.72 bitrate= 131.8kbits/s speed=0.276x    frame=  173 fps=6.9 q=13.0 size=     111kB time=00:00:06.88 bitrate= 131.8kbits/s speed=0.276x    frame=  177 fps=6.9 q=13.0 size=     113kB time=00:00:07.04 bitrate= 131.4kbits/s speed=0.276x    frame=  181 fps=6.9 q=13.0 size=     115kB time=00:00:07.20 bitrate= 131.0kbits/s speed=0.275x    frame=  184 fps=6.9 q=13.0 size=     117kB time=00:00:07.32 bitrate= 131.3kbits/s speed=0.274x    frame=  188 fps=6.9 q=13.0 size=     120kB time=00:00:07.48 bitrate= 130.9kbits/s speed=0.274x    frame=  192 fps=6.9 q=13.0 size=     122kB time=00:00:07.64 bitrate= 130.3kbits/s speed=0.273x    frame=  195 fps=6.8 q=13.0 size=     123kB time=00:00:07.76 bitrate= 130.0kbits/s speed=0.273x    frame=  198 fps=6.8 q=13.0 size=     125kB time=00:00:07.88 bitrate= 130.2kbits/s speed=0.272x    frame=  202 fps=6.8 q=13.0 size=     127kB time=00:00:08.04 bitrate= 129.8kbits/s speed=0.272x    frame=  206 fps=6.8 q=13.0 size=     130kB time=00:00:08.20 bitrate= 129.5kbits/s speed=0.271x    frame=  209 fps=6.8 q=14.0 size=     131kB time=00:00:08.32 bitrate= 129.4kbits/s speed=0.271x    frame=  213 fps=6.8 q=13.0 size=     134kB time=00:00:08.48 bitrate= 129.5kbits/s speed=0.27x    frame=  217 fps=6.8 q=13.0 size=     136kB time=00:00:08.64 bitrate= 129.2kbits/s speed=0.27x    frame=  221 fps=6.8 q=14.0 size=     139kB time=00:00:08.80 bitrate= 129.0kbits/s speed=0.27x    frame=  225 fps=6.8 q=13.0 size=     141kB time=00:00:08.96 bitrate= 129.1kbits/s speed=0.27x    frame=  229 fps=6.8 q=13.0 size=     143kB time=00:00:09.12 bitrate= 128.6kbits/s speed=0.27x    frame=  233 fps=6.8 q=13.0 size=     145kB time=00:00:09.28 bitrate= 128.4kbits/s speed=0.27x    frame=  237 fps=6.8 q=14.0 size=     148kB time=00:00:09.44 bitrate= 128.4kbits/s speed=0.27x    frame=  241 fps=6.8 q=13.0 size=     150kB time=00:00:09.60 bitrate= 128.2kbits/s speed=0.27x    frame=  245 fps=6.8 q=13.0 size=     152kB time=00:00:09.76 bitrate= 127.9kbits/s speed=0.27x    frame=  249 fps=6.8 q=13.0 size=     155kB time=00:00:09.92 bitrate= 127.7kbits/s speed=0.27x    frame=  253 fps=6.8 q=14.0 size=     160kB time=00:00:10.08 bitrate= 130.1kbits/s speed=0.271x    frame=  257 fps=6.8 q=14.0 size=     162kB time=00:00:10.24 bitrate= 130.0kbits/s speed=0.271x    frame=  261 fps=6.8 q=13.0 size=     165kB time=00:00:10.40 bitrate= 129.9kbits/s speed=0.271x    frame=  265 fps=6.8 q=14.0 size=     167kB time=00:00:10.56 bitrate= 129.6kbits/s speed=0.271x    frame=  269 fps=6.8 q=14.0 size=     169kB time=00:00:10.72 bitrate= 129.5kbits/s speed=0.271x    frame=  273 fps=6.8 q=14.0 size=     173kB time=00:00:10.88 bitrate= 129.9kbits/s speed=0.272x    frame=  277 fps=6.8 q=13.0 size=     175kB time=00:00:11.04 bitrate= 129.6kbits/s speed=0.272x    frame=  281 fps=6.8 q=13.0 size=     177kB time=00:00:11.20 bitrate= 129.3kbits/s speed=0.272x    frame=  285 fps=6.8 q=14.0 size=     179kB time=00:00:11.36 bitrate= 129.3kbits/s speed=0.272x    frame=  289 fps=6.8 q=13.0 size=     182kB time=00:00:11.52 bitrate= 129.1kbits/s speed=0.272x    frame=  293 fps=6.8 q=14.0 size=     184kB time=00:00:11.68 bitrate= 129.0kbits/s speed=0.272x    frame=  297 fps=6.8 q=14.0 size=     186kB time=00:00:11.84 bitrate= 128.9kbits/s speed=0.271x    frame=  301 fps=6.8 q=13.0 size=     189kB time=00:00:12.00 bitrate= 128.8kbits/s speed=0.271x    frame=  305 fps=6.8 q=13.0 size=     191kB time=00:00:12.16 bitrate= 128.6kbits/s speed=0.271x    frame=  309 fps=6.8 q=14.0 size=     193kB time=00:00:12.32 bitrate= 128.4kbits/s speed=0.271x    frame=  313 fps=6.8 q=14.0 size=     196kB time=00:00:12.48 bitrate= 128.7kbits/s speed=0.271x    frame=  317 fps=6.8 q=14.0 size=     198kB time=00:00:12.64 bitrate= 128.6kbits/s speed=0.272x    frame=  321 fps=6.8 q=14.0 size=     201kB time=00:00:12.80 bitrate= 128.5kbits/s speed=0.272x    frame=  325 fps=6.8 q=14.0 size=     203kB time=00:00:12.96 bitrate= 128.6kbits/s speed=0.272x    frame=  329 fps=6.8 q=14.0 size=     206kB time=00:00:13.12 bitrate= 128.6kbits/s speed=0.272x    frame=  333 fps=6.8 q=14.0 size=     208kB time=00:00:13.28 bitrate= 128.5kbits/s speed=0.272x    frame=  337 fps=6.8 q=13.0 size=     211kB time=00:00:13.44 bitrate= 128.6kbits/s speed=0.272x    frame=  341 fps=6.8 q=14.0 size=     213kB time=00:00:13.60 bitrate= 128.5kbits/s speed=0.273x    frame=  345 fps=6.8 q=14.0 size=     216kB time=00:00:13.76 bitrate= 128.5kbits/s speed=0.273x    frame=  349 fps=6.8 q=14.0 size=     218kB time=00:00:13.92 bitrate= 128.6kbits/s speed=0.273x    frame=  353 fps=6.8 q=14.0 size=     221kB time=00:00:14.08 bitrate= 128.5kbits/s speed=0.273x    frame=  357 fps=6.8 q=14.0 size=     223kB time=00:00:14.24 bitrate= 128.5kbits/s speed=0.273x    frame=  361 fps=6.8 q=14.0 size=     227kB time=00:00:14.40 bitrate= 128.9kbits/s speed=0.273x    frame=  365 fps=6.9 q=14.0 size=     229kB time=00:00:14.56 bitrate= 128.7kbits/s speed=0.273x    frame=  369 fps=6.8 q=13.0 size=     231kB time=00:00:14.72 bitrate= 128.5kbits/s speed=0.273x    frame=  373 fps=6.9 q=13.0 size=     234kB time=00:00:14.88 bitrate= 128.7kbits/s speed=0.273x    frame=  377 fps=6.9 q=14.0 size=     236kB time=00:00:15.04 bitrate= 128.5kbits/s speed=0.273x    frame=  381 fps=6.9 q=14.0 size=     238kB time=00:00:15.20 bitrate= 128.3kbits/s speed=0.274x    frame=  385 fps=6.9 q=14.0 size=     240kB time=00:00:15.36 bitrate= 128.2kbits/s speed=0.274x    frame=  389 fps=6.9 q=14.0 size=     243kB time=00:00:15.52 bitrate= 128.3kbits/s speed=0.274x    frame=  393 fps=6.9 q=14.0 size=     245kB time=00:00:15.68 bitrate= 128.1kbits/s speed=0.274x    frame=  397 fps=6.9 q=14.0 size=     247kB time=00:00:15.84 bitrate= 128.0kbits/s speed=0.274x    frame=  401 fps=6.9 q=14.0 size=     250kB time=00:00:16.00 bitrate= 128.1kbits/s speed=0.274x    frame=  405 fps=6.9 q=14.0 size=     253kB time=00:00:16.16 bitrate= 128.2kbits/s speed=0.274x    frame=  409 fps=6.9 q=14.0 size=     255kB time=00:00:16.32 bitrate= 128.1kbits/s speed=0.274x    frame=  413 fps=6.9 q=13.0 size=     256kB time=00:00:16.48 bitrate= 127.3kbits/s speed=0.274x    frame=  417 fps=6.9 q=13.0 size=     256kB time=00:00:16.64 bitrate= 126.0kbits/s speed=0.274x    frame=  421 fps=6.9 q=13.0 size=     256kB time=00:00:16.80 bitrate= 124.8kbits/s speed=0.275x    frame=  425 fps=6.9 q=13.0 size=     256kB time=00:00:16.96 bitrate= 123.7kbits/s speed=0.275x    frame=  429 fps=6.9 q=13.0 size=     256kB time=00:00:17.12 bitrate= 122.5kbits/s speed=0.274x    frame=  433 fps=6.9 q=14.0 size=     256kB time=00:00:17.28 bitrate= 121.4kbits/s speed=0.275x    frame=  437 fps=6.9 q=13.0 size=     256kB time=00:00:17.44 bitrate= 120.2kbits/s speed=0.275x    frame=  441 fps=6.9 q=13.0 size=     256kB time=00:00:17.60 bitrate= 119.2kbits/s speed=0.275x    frame=  445 fps=6.9 q=13.0 size=     256kB time=00:00:17.76 bitrate= 118.1kbits/s speed=0.275x    frame=  449 fps=6.9 q=13.0 size=     256kB time=00:00:17.92 bitrate= 117.0kbits/s speed=0.275x    frame=  453 fps=6.9 q=13.0 size=     256kB time=00:00:18.08 bitrate= 116.0kbits/s speed=0.275x    frame=  457 fps=6.9 q=13.0 size=     256kB time=00:00:18.24 bitrate= 115.0kbits/s speed=0.275x    frame=  461 fps=6.9 q=13.0 size=     256kB time=00:00:18.40 bitrate= 114.0kbits/s speed=0.275x    frame=  465 fps=6.9 q=13.0 size=     256kB time=00:00:18.56 bitrate= 113.0kbits/s speed=0.275x    frame=  469 fps=6.9 q=13.0 size=     256kB time=00:00:18.72 bitrate= 112.0kbits/s speed=0.276x    frame=  473 fps=6.9 q=13.0 size=     256kB time=00:00:18.88 bitrate= 111.1kbits/s speed=0.276x    frame=  477 fps=6.9 q=13.0 size=     256kB time=00:00:19.04 bitrate= 110.1kbits/s speed=0.276x    frame=  481 fps=6.9 q=13.0 size=     256kB time=00:00:19.20 bitrate= 109.2kbits/s speed=0.276x    frame=  485 fps=6.9 q=13.0 size=     256kB time=00:00:19.36 bitrate= 108.3kbits/s speed=0.276x    frame=  489 fps=6.9 q=13.0 size=     256kB time=00:00:19.52 bitrate= 107.4kbits/s speed=0.276x    frame=  493 fps=6.9 q=13.0 size=     256kB time=00:00:19.68 bitrate= 106.6kbits/s speed=0.276x    frame=  497 fps=6.9 q=13.0 size=     256kB time=00:00:19.84 bitrate= 105.7kbits/s speed=0.276x    frame=  501 fps=6.9 q=11.0 size=     256kB time=00:00:20.00 bitrate= 104.9kbits/s speed=0.276x    frame=  505 fps=6.9 q=14.0 size=     256kB time=00:00:20.16 bitrate= 104.0kbits/s speed=0.276x    frame=  509 fps=6.9 q=14.0 size=     256kB time=00:00:20.32 bitrate= 103.2kbits/s speed=0.276x    frame=  513 fps=6.9 q=14.0 size=     256kB time=00:00:20.48 bitrate= 102.4kbits/s speed=0.276x    frame=  517 fps=6.9 q=14.0 size=     256kB time=00:00:20.64 bitrate= 101.6kbits/s speed=0.276x    frame=  521 fps=6.9 q=14.0 size=     256kB time=00:00:20.80 bitrate= 100.8kbits/s speed=0.276x    frame=  525 fps=6.9 q=14.0 size=     256kB time=00:00:20.96 bitrate= 100.1kbits/s speed=0.277x    frame=  529 fps=6.9 q=14.0 size=     256kB time=00:00:21.12 bitrate=  99.3kbits/s speed=0.277x    frame=  533 fps=6.9 q=14.0 size=     256kB time=00:00:21.28 bitrate=  98.6kbits/s speed=0.277x    frame=  537 fps=6.9 q=14.0 size=     256kB time=00:00:21.44 bitrate=  97.8kbits/s speed=0.277x    frame=  541 fps=6.9 q=14.0 size=     256kB time=00:00:21.60 bitrate=  97.1kbits/s speed=0.277x    frame=  545 fps=6.9 q=13.0 size=     256kB time=00:00:21.76 bitrate=  96.4kbits/s speed=0.277x    frame=  549 fps=6.9 q=13.0 size=     256kB time=00:00:21.92 bitrate=  95.7kbits/s speed=0.277x    frame=  553 fps=6.9 q=13.0 size=     256kB time=00:00:22.08 bitrate=  95.0kbits/s speed=0.277x    frame=  557 fps=6.9 q=13.0 size=     256kB time=00:00:22.24 bitrate=  94.3kbits/s speed=0.276x    frame=  561 fps=6.9 q=14.0 size=     256kB time=00:00:22.40 bitrate=  93.6kbits/s speed=0.277x    frame=  565 fps=6.9 q=14.0 size=     256kB time=00:00:22.56 bitrate=  93.0kbits/s speed=0.277x    frame=  569 fps=6.9 q=14.0 size=     256kB time=00:00:22.72 bitrate=  92.3kbits/s speed=0.277x    frame=  573 fps=6.9 q=14.0 size=     256kB time=00:00:22.88 bitrate=  91.7kbits/s speed=0.277x    frame=  577 fps=6.9 q=14.0 size=     256kB time=00:00:23.04 bitrate=  91.0kbits/s speed=0.277x    frame=  581 fps=6.9 q=14.0 size=     256kB time=00:00:23.20 bitrate=  90.4kbits/s speed=0.277x    frame=  585 fps=6.9 q=14.0 size=     256kB time=00:00:23.36 bitrate=  89.8kbits/s speed=0.277x    frame=  589 fps=6.9 q=14.0 size=     256kB time=00:00:23.52 bitrate=  89.2kbits/s speed=0.277x    frame=  593 fps=6.9 q=14.0 size=     256kB time=00:00:23.68 bitrate=  88.6kbits/s speed=0.277x    frame=  597 fps=6.9 q=14.0 size=     256kB time=00:00:23.84 bitrate=  88.0kbits/s speed=0.277x    frame=  601 fps=6.9 q=14.0 size=     256kB time=00:00:24.00 bitrate=  87.4kbits/s speed=0.277x    frame=  605 fps=6.9 q=14.0 size=     256kB time=00:00:24.16 bitrate=  86.8kbits/s speed=0.277x    frame=  609 fps=6.9 q=14.0 size=     256kB time=00:00:24.32 bitrate=  86.2kbits/s speed=0.277x    frame=  613 fps=6.9 q=14.0 size=     256kB time=00:00:24.48 bitrate=  85.7kbits/s speed=0.277x    frame=  617 fps=6.9 q=14.0 size=     256kB time=00:00:24.64 bitrate=  85.1kbits/s speed=0.277x    frame=  621 fps=6.9 q=14.0 size=     256kB time=00:00:24.80 bitrate=  84.6kbits/s speed=0.277x    frame=  625 fps=6.9 q=14.0 size=     256kB time=00:00:24.96 bitrate=  84.0kbits/s speed=0.277x    frame=  629 fps=6.9 q=14.0 size=     256kB time=00:00:25.12 bitrate=  83.5kbits/s speed=0.277x    frame=  633 fps=6.9 q=14.0 size=     256kB time=00:00:25.28 bitrate=  83.0kbits/s speed=0.277x    frame=  637 fps=6.9 q=14.0 size=     256kB time=00:00:25.44 bitrate=  82.4kbits/s speed=0.277x    frame=  641 fps=6.9 q=14.0 size=     256kB time=00:00:25.60 bitrate=  81.9kbits/s speed=0.277x    frame=  645 fps=6.9 q=13.0 size=     256kB time=00:00:25.76 bitrate=  81.4kbits/s speed=0.277x    frame=  649 fps=6.9 q=13.0 size=     256kB time=00:00:25.92 bitrate=  80.9kbits/s speed=0.277x    frame=  653 fps=6.9 q=13.0 size=     256kB time=00:00:26.08 bitrate=  80.4kbits/s speed=0.278x    frame=  657 fps=7.0 q=13.0 size=     256kB time=00:00:26.24 bitrate=  79.9kbits/s speed=0.278x    frame=  661 fps=7.0 q=13.0 size=     256kB time=00:00:26.40 bitrate=  79.4kbits/s speed=0.278x    frame=  665 fps=7.0 q=13.0 size=     256kB time=00:00:26.56 bitrate=  79.0kbits/s speed=0.278x    frame=  669 fps=7.0 q=13.0 size=     256kB time=00:00:26.72 bitrate=  78.5kbits/s speed=0.278x    frame=  673 fps=7.0 q=13.0 size=     256kB time=00:00:26.88 bitrate=  78.0kbits/s speed=0.278x    frame=  677 fps=7.0 q=13.0 size=     256kB time=00:00:27.04 bitrate=  77.6kbits/s speed=0.278x    frame=  681 fps=7.0 q=13.0 size=     256kB time=00:00:27.20 bitrate=  77.1kbits/s speed=0.278x    frame=  685 fps=7.0 q=13.0 size=     256kB time=00:00:27.36 bitrate=  76.7kbits/s speed=0.278x    frame=  689 fps=7.0 q=13.0 size=     256kB time=00:00:27.52 bitrate=  76.2kbits/s speed=0.278x    frame=  693 fps=7.0 q=13.0 size=     256kB time=00:00:27.68 bitrate=  75.8kbits/s speed=0.278x    frame=  697 fps=7.0 q=13.0 size=     256kB time=00:00:27.84 bitrate=  75.3kbits/s speed=0.278x    frame=  701 fps=7.0 q=13.0 size=     256kB time=00:00:28.00 bitrate=  74.9kbits/s speed=0.278x    frame=  705 fps=7.0 q=14.0 size=     256kB time=00:00:28.16 bitrate=  74.5kbits/s speed=0.278x    frame=  709 fps=7.0 q=13.0 size=     256kB time=00:00:28.32 bitrate=  74.1kbits/s speed=0.278x    frame=  713 fps=7.0 q=13.0 size=     256kB time=00:00:28.48 bitrate=  73.6kbits/s speed=0.279x    frame=  717 fps=7.0 q=13.0 size=     256kB time=00:00:28.64 bitrate=  73.2kbits/s speed=0.279x    frame=  721 fps=7.0 q=13.0 size=     256kB time=00:00:28.80 bitrate=  72.8kbits/s speed=0.279x    frame=  725 fps=7.0 q=14.0 size=     256kB time=00:00:28.96 bitrate=  72.4kbits/s speed=0.279x    frame=  729 fps=7.0 q=13.0 size=     256kB time=00:00:29.12 bitrate=  72.0kbits/s speed=0.279x    frame=  733 fps=7.0 q=13.0 size=     256kB time=00:00:29.28 bitrate=  71.6kbits/s speed=0.279x    frame=  737 fps=7.0 q=13.0 size=     256kB time=00:00:29.44 bitrate=  71.2kbits/s speed=0.279x    frame=  741 fps=7.0 q=13.0 size=     256kB time=00:00:29.60 bitrate=  70.8kbits/s speed=0.279x    frame=  745 fps=7.0 q=14.0 size=     256kB time=00:00:29.76 bitrate=  70.5kbits/s speed=0.279x    frame=  749 fps=7.0 q=14.0 size=     256kB time=00:00:29.92 bitrate=  70.1kbits/s speed=0.279x    frame=  753 fps=7.0 q=14.0 size=     256kB time=00:00:30.08 bitrate=  69.7kbits/s speed=0.279x    frame=  757 fps=7.0 q=14.0 size=     256kB time=00:00:30.24 bitrate=  69.4kbits/s speed=0.279x    frame=  761 fps=7.0 q=14.0 size=     256kB time=00:00:30.40 bitrate=  69.0kbits/s speed=0.279x    frame=  765 fps=7.0 q=14.0 size=     256kB time=00:00:30.56 bitrate=  68.6kbits/s speed=0.279x    frame=  769 fps=7.0 q=14.0 size=     256kB time=00:00:30.72 bitrate=  68.3kbits/s speed=0.279x    frame=  773 fps=7.0 q=13.0 size=     256kB time=00:00:30.88 bitrate=  67.9kbits/s speed=0.279x    frame=  777 fps=7.0 q=13.0 size=     256kB time=00:00:31.04 bitrate=  67.6kbits/s speed=0.279x    frame=  781 fps=7.0 q=13.0 size=     256kB time=00:00:31.20 bitrate=  67.2kbits/s speed=0.279x    frame=  785 fps=7.0 q=13.0 size=     256kB time=00:00:31.36 bitrate=  66.9kbits/s speed=0.279x    frame=  789 fps=7.0 q=13.0 size=     256kB time=00:00:31.52 bitrate=  66.5kbits/s speed=0.279x    frame=  793 fps=7.0 q=13.0 size=     256kB time=00:00:31.68 bitrate=  66.2kbits/s speed=0.279x    frame=  797 fps=7.0 q=13.0 size=     512kB time=00:00:31.84 bitrate= 131.7kbits/s speed=0.279x    frame=  801 fps=7.0 q=14.0 size=     512kB time=00:00:32.00 bitrate= 131.1kbits/s speed=0.279x    frame=  805 fps=7.0 q=14.0 size=     512kB time=00:00:32.16 bitrate= 130.4kbits/s speed=0.279x    frame=  809 fps=7.0 q=14.0 size=     512kB time=00:00:32.32 bitrate= 129.8kbits/s speed=0.279x    frame=  813 fps=7.0 q=14.0 size=     512kB time=00:00:32.48 bitrate= 129.1kbits/s speed=0.279x    frame=  817 fps=7.0 q=13.0 size=     512kB time=00:00:32.64 bitrate= 128.5kbits/s speed=0.279x    frame=  821 fps=7.0 q=14.0 size=     512kB time=00:00:32.80 bitrate= 127.9kbits/s speed=0.279x    frame=  825 fps=7.0 q=14.0 size=     512kB time=00:00:32.96 bitrate= 127.3kbits/s speed=0.279x    frame=  829 fps=7.0 q=14.0 size=     512kB time=00:00:33.12 bitrate= 126.6kbits/s speed=0.279x    frame=  833 fps=7.0 q=14.0 size=     512kB time=00:00:33.28 bitrate= 126.0kbits/s speed=0.279x    frame=  837 fps=7.0 q=14.0 size=     512kB time=00:00:33.44 bitrate= 125.4kbits/s speed=0.279x    frame=  841 fps=7.0 q=14.0 size=     512kB time=00:00:33.60 bitrate= 124.8kbits/s speed=0.279x    frame=  845 fps=7.0 q=14.0 size=     512kB time=00:00:33.76 bitrate= 124.2kbits/s speed=0.279x    frame=  849 fps=7.0 q=14.0 size=     512kB time=00:00:33.92 bitrate= 123.7kbits/s speed=0.279x    frame=  853 fps=7.0 q=14.0 size=     512kB time=00:00:34.08 bitrate= 123.1kbits/s speed=0.279x    frame=  857 fps=7.0 q=14.0 size=     512kB time=00:00:34.24 bitrate= 122.5kbits/s speed=0.279x    frame=  861 fps=7.0 q=14.0 size=     512kB time=00:00:34.40 bitrate= 121.9kbits/s speed=0.279x    frame=  865 fps=7.0 q=14.0 size=     512kB time=00:00:34.56 bitrate= 121.4kbits/s speed=0.279x    frame=  869 fps=7.0 q=14.0 size=     512kB time=00:00:34.72 bitrate= 120.8kbits/s speed=0.279x    frame=  873 fps=7.0 q=14.0 size=     512kB time=00:00:34.88 bitrate= 120.2kbits/s speed=0.279x    frame=  877 fps=7.0 q=14.0 size=     512kB time=00:00:35.04 bitrate= 119.7kbits/s speed=0.279x    frame=  881 fps=7.0 q=14.0 size=     512kB time=00:00:35.20 bitrate= 119.2kbits/s speed=0.279x    frame=  885 fps=7.0 q=14.0 size=     512kB time=00:00:35.36 bitrate= 118.6kbits/s speed=0.279x    frame=  889 fps=7.0 q=14.0 size=     512kB time=00:00:35.52 bitrate= 118.1kbits/s speed=0.279x    frame=  893 fps=7.0 q=14.0 size=     512kB time=00:00:35.68 bitrate= 117.6kbits/s speed=0.279x    frame=  897 fps=7.0 q=14.0 size=     512kB time=00:00:35.84 bitrate= 117.0kbits/s speed=0.279x    frame=  901 fps=7.0 q=14.0 size=     512kB time=00:00:36.00 bitrate= 116.5kbits/s speed=0.279x    frame=  905 fps=7.0 q=14.0 size=     512kB time=00:00:36.16 bitrate= 116.0kbits/s speed=0.279x    frame=  909 fps=7.0 q=14.0 size=     512kB time=00:00:36.32 bitrate= 115.5kbits/s speed=0.279x    frame=  912 fps=7.0 q=14.0 size=     512kB time=00:00:36.44 bitrate= 115.1kbits/s speed=0.279x    frame=  916 fps=7.0 q=14.0 size=     512kB time=00:00:36.60 bitrate= 114.6kbits/s speed=0.279x    frame=  920 fps=7.0 q=14.0 size=     512kB time=00:00:36.76 bitrate= 114.1kbits/s speed=0.278x    frame=  924 fps=7.0 q=14.0 size=     512kB time=00:00:36.92 bitrate= 113.6kbits/s speed=0.278x    frame=  928 fps=7.0 q=14.0 size=     512kB time=00:00:37.08 bitrate= 113.1kbits/s speed=0.278x    frame=  932 fps=7.0 q=14.0 size=     512kB time=00:00:37.24 bitrate= 112.6kbits/s speed=0.278x    frame=  936 fps=7.0 q=14.0 size=     512kB time=00:00:37.40 bitrate= 112.1kbits/s speed=0.278x    frame=  940 fps=7.0 q=14.0 size=     512kB time=00:00:37.56 bitrate= 111.7kbits/s speed=0.278x    frame=  944 fps=7.0 q=14.0 size=     512kB time=00:00:37.72 bitrate= 111.2kbits/s speed=0.278x    frame=  948 fps=7.0 q=13.0 size=     512kB time=00:00:37.88 bitrate= 110.7kbits/s speed=0.278x    frame=  952 fps=7.0 q=13.0 size=     512kB time=00:00:38.04 bitrate= 110.3kbits/s speed=0.278x    frame=  956 fps=7.0 q=13.0 size=     512kB time=00:00:38.20 bitrate= 109.8kbits/s speed=0.278x    frame=  960 fps=6.9 q=14.0 size=     512kB time=00:00:38.36 bitrate= 109.3kbits/s speed=0.278x    frame=  964 fps=6.9 q=13.0 size=     512kB time=00:00:38.52 bitrate= 108.9kbits/s speed=0.278x    frame=  968 fps=6.9 q=13.0 size=     512kB time=00:00:38.68 bitrate= 108.4kbits/s speed=0.278x    frame=  972 fps=6.9 q=13.0 size=     512kB time=00:00:38.84 bitrate= 108.0kbits/s speed=0.277x    frame=  976 fps=6.9 q=13.0 size=     512kB time=00:00:39.00 bitrate= 107.5kbits/s speed=0.277x    frame=  980 fps=6.9 q=13.0 size=     512kB time=00:00:39.16 bitrate= 107.1kbits/s speed=0.277x    frame=  984 fps=6.9 q=13.0 size=     512kB time=00:00:39.32 bitrate= 106.7kbits/s speed=0.277x    frame=  988 fps=6.9 q=13.0 size=     512kB time=00:00:39.48 bitrate= 106.2kbits/s speed=0.277x    frame=  992 fps=6.9 q=13.0 size=     512kB time=00:00:39.64 bitrate= 105.8kbits/s speed=0.277x    frame=  996 fps=6.9 q=13.0 size=     512kB time=00:00:39.80 bitrate= 105.4kbits/s speed=0.277x    frame= 1000 fps=6.9 q=13.0 size=     512kB time=00:00:39.96 bitrate= 105.0kbits/s speed=0.277x    frame= 1004 fps=6.9 q=14.0 size=     512kB time=00:00:40.12 bitrate= 104.5kbits/s speed=0.277x    frame= 1008 fps=6.9 q=14.0 size=     512kB time=00:00:40.28 bitrate= 104.1kbits/s speed=0.277x    frame= 1012 fps=6.9 q=13.0 size=     512kB time=00:00:40.44 bitrate= 103.7kbits/s speed=0.277x    frame= 1016 fps=6.9 q=14.0 size=     512kB time=00:00:40.60 bitrate= 103.3kbits/s speed=0.277x    frame= 1020 fps=6.9 q=14.0 size=     512kB time=00:00:40.76 bitrate= 102.9kbits/s speed=0.277x    frame= 1024 fps=6.9 q=14.0 size=     512kB time=00:00:40.92 bitrate= 102.5kbits/s speed=0.277x    frame= 1028 fps=6.9 q=14.0 size=     512kB time=00:00:41.08 bitrate= 102.1kbits/s speed=0.277x    frame= 1032 fps=6.9 q=14.0 size=     512kB time=00:00:41.24 bitrate= 101.7kbits/s speed=0.277x    frame= 1036 fps=6.9 q=14.0 size=     512kB time=00:00:41.40 bitrate= 101.3kbits/s speed=0.277x    frame= 1040 fps=6.9 q=14.0 size=     512kB time=00:00:41.56 bitrate= 100.9kbits/s speed=0.277x    frame= 1044 fps=6.9 q=14.0 size=     512kB time=00:00:41.72 bitrate= 100.5kbits/s speed=0.277x    frame= 1048 fps=6.9 q=14.0 size=     512kB time=00:00:41.88 bitrate= 100.2kbits/s speed=0.277x    frame= 1052 fps=6.9 q=14.0 size=     512kB time=00:00:42.04 bitrate=  99.8kbits/s speed=0.277x    frame= 1056 fps=6.9 q=14.0 size=     512kB time=00:00:42.20 bitrate=  99.4kbits/s speed=0.277x    frame= 1060 fps=6.9 q=14.0 size=     512kB time=00:00:42.36 bitrate=  99.0kbits/s speed=0.276x    frame= 1064 fps=6.9 q=14.0 size=     512kB time=00:00:42.52 bitrate=  98.6kbits/s speed=0.276x    frame= 1068 fps=6.9 q=14.0 size=     512kB time=00:00:42.68 bitrate=  98.3kbits/s speed=0.276x    frame= 1072 fps=6.9 q=14.0 size=     512kB time=00:00:42.84 bitrate=  97.9kbits/s speed=0.276x    frame= 1076 fps=6.9 q=14.0 size=     512kB time=00:00:43.00 bitrate=  97.5kbits/s speed=0.276x    frame= 1080 fps=6.9 q=14.0 size=     512kB time=00:00:43.16 bitrate=  97.2kbits/s speed=0.276x    frame= 1084 fps=6.9 q=14.0 size=     512kB time=00:00:43.32 bitrate=  96.8kbits/s speed=0.276x    frame= 1088 fps=6.9 q=14.0 size=     512kB time=00:00:43.48 bitrate=  96.5kbits/s speed=0.276x    frame= 1092 fps=6.9 q=14.0 size=     512kB time=00:00:43.64 bitrate=  96.1kbits/s speed=0.276x    frame= 1096 fps=6.9 q=14.0 size=     512kB time=00:00:43.80 bitrate=  95.8kbits/s speed=0.276x    frame= 1100 fps=6.9 q=14.0 size=     512kB time=00:00:43.96 bitrate=  95.4kbits/s speed=0.276x    frame= 1104 fps=6.9 q=14.0 size=     512kB time=00:00:44.12 bitrate=  95.1kbits/s speed=0.276x    frame= 1108 fps=6.9 q=14.0 size=     512kB time=00:00:44.28 bitrate=  94.7kbits/s speed=0.276x    frame= 1112 fps=6.9 q=14.0 size=     512kB time=00:00:44.44 bitrate=  94.4kbits/s speed=0.276x    frame= 1116 fps=6.9 q=14.0 size=     768kB time=00:00:44.60 bitrate= 141.1kbits/s speed=0.276x    frame= 1119 fps=6.9 q=13.0 size=     768kB time=00:00:44.72 bitrate= 140.7kbits/s speed=0.276x    frame= 1123 fps=6.9 q=13.0 size=     768kB time=00:00:44.88 bitrate= 140.2kbits/s speed=0.276x    frame= 1127 fps=6.9 q=13.0 size=     768kB time=00:00:45.04 bitrate= 139.7kbits/s speed=0.275x    frame= 1131 fps=6.9 q=13.0 size=     768kB time=00:00:45.20 bitrate= 139.2kbits/s speed=0.275x    frame= 1135 fps=6.9 q=13.0 size=     768kB time=00:00:45.36 bitrate= 138.7kbits/s speed=0.275x    frame= 1139 fps=6.9 q=13.0 size=     768kB time=00:00:45.52 bitrate= 138.2kbits/s speed=0.275x    frame= 1143 fps=6.9 q=13.0 size=     768kB time=00:00:45.68 bitrate= 137.7kbits/s speed=0.275x    frame= 1147 fps=6.9 q=13.0 size=     768kB time=00:00:45.84 bitrate= 137.2kbits/s speed=0.275x    frame= 1151 fps=6.9 q=13.0 size=     768kB time=00:00:46.00 bitrate= 136.8kbits/s speed=0.275x    frame= 1155 fps=6.9 q=13.0 size=     768kB time=00:00:46.16 bitrate= 136.3kbits/s speed=0.275x    frame= 1159 fps=6.9 q=13.0 size=     768kB time=00:00:46.32 bitrate= 135.8kbits/s speed=0.275x    frame= 1163 fps=6.9 q=13.0 size=     768kB time=00:00:46.48 bitrate= 135.4kbits/s speed=0.275x    frame= 1167 fps=6.9 q=13.0 size=     768kB time=00:00:46.64 bitrate= 134.9kbits/s speed=0.275x    frame= 1171 fps=6.9 q=13.0 size=     768kB time=00:00:46.80 bitrate= 134.4kbits/s speed=0.275x    frame= 1175 fps=6.9 q=13.0 size=     768kB time=00:00:46.96 bitrate= 134.0kbits/s speed=0.275x    frame= 1179 fps=6.9 q=13.0 size=     768kB time=00:00:47.12 bitrate= 133.5kbits/s speed=0.275x    frame= 1183 fps=6.9 q=13.0 size=     768kB time=00:00:47.28 bitrate= 133.1kbits/s speed=0.275x    frame= 1187 fps=6.9 q=13.0 size=     768kB time=00:00:47.44 bitrate= 132.6kbits/s speed=0.275x    frame= 1191 fps=6.9 q=13.0 size=     768kB time=00:00:47.60 bitrate= 132.2kbits/s speed=0.275x    frame= 1195 fps=6.9 q=13.0 size=     768kB time=00:00:47.76 bitrate= 131.7kbits/s speed=0.275x    frame= 1199 fps=6.9 q=13.0 size=     768kB time=00:00:47.92 bitrate= 131.3kbits/s speed=0.275x    frame= 1203 fps=6.9 q=13.0 size=     768kB time=00:00:48.08 bitrate= 130.9kbits/s speed=0.275x    frame= 1207 fps=6.9 q=13.0 size=     768kB time=00:00:48.24 bitrate= 130.4kbits/s speed=0.275x    frame= 1211 fps=6.9 q=13.0 size=     768kB time=00:00:48.40 bitrate= 130.0kbits/s speed=0.275x    frame= 1215 fps=6.9 q=13.0 size=     768kB time=00:00:48.56 bitrate= 129.6kbits/s speed=0.275x    frame= 1219 fps=6.9 q=13.0 size=     768kB time=00:00:48.72 bitrate= 129.1kbits/s speed=0.275x    Error while decoding stream #0:0: Invalid data found when processing input
frame= 1219 fps=6.9 q=13.0 Lsize=     825kB time=00:00:48.72 bitrate= 138.8kbits/s speed=0.275x    
video:621kB audio:0kB subtitle:0kB other streams:0kB global headers:0kB muxing overhead: 32.862190%
[libx264 @ 0x5555555e0800] frame I:5     Avg QP: 0.97  size:  3018
[libx264 @ 0x5555555e0800] frame P:1214  Avg QP: 2.08  size:   512
[libx264 @ 0x5555555e0800] mb I  I16..4: 93.8%  2.5%  3.7%
[libx264 @ 0x5555555e0800] mb P  I16..4:  0.4%  0.1%  0.0%  P16..4:  3.7%  1.1%  0.7%  0.0%  0.0%    skip:93.9%
[libx264 @ 0x5555555e0800] 8x8 transform intra:11.9% inter:57.6%
[libx264 @ 0x5555555e0800] coded y,uvDC,uvAC intra: 10.3% 21.2% 16.2% inter: 0.2% 1.0% 0.4%
[libx264 @ 0x5555555e0800] i16 v,h,dc,p: 50% 25% 25%  0%
[libx264 @ 0x5555555e0800] i8 v,h,dc,ddl,ddr,vr,hd,vl,hu:  7% 26% 45%  2%  4%  4%  4%  2%  7%
[libx264 @ 0x5555555e0800] i4 v,h,dc,ddl,ddr,vr,hd,vl,hu: 17% 19% 32%  3% 10%  7%  6%  2%  3%
[libx264 @ 0x5555555e0800] i8c dc,h,v,p: 65% 32%  2%  1%
[libx264 @ 0x5555555e0800] Weighted P-Frames: Y:0.7% UV:0.2%
[libx264 @ 0x5555555e0800] ref P L0: 56.1%  1.9% 16.7%  9.0%  8.1%  8.2%  0.0%
[libx264 @ 0x5555555e0800] kb/s:104.38
Exiting normally, received signal 2.
swrast/s_depth.c:608:error: [Thread debugging using libthread_db enabled]
swrast/s_depth.c:608:error: Using host libthread_db library "/lib/x86_64-linux-gnu/libthread_db.so.1".
swrast/s_depth.c:608:error: [New Thread 0x7ffff625c700 (LWP 22077)]
swrast/s_depth.c:608:error: [New Thread 0x7ffff5a5b700 (LWP 22078)]
swrast/s_depth.c:608:error: [New Thread 0x7ffff525a700 (LWP 22079)]
swrast/s_depth.c:608:error: Thread 1 "multicouette_G" received signal SIGINT, Interrupt.
